<svg width="28" height="21" viewBox="0 0 28 21" version="1.1" xmlns="http://www.w3.org/2000/svg" xmlns:xlink="http://www.w3.org/1999/xlink">
<title>icon</title>
<desc>Created using Figma</desc>
<g id="Canvas" transform="translate(-795 312)">
<g id="icon">
<use xlink:href="#path0_fill" transform="translate(795 -312)"/>
</g>
</g>
<defs>
<path id="path0_fill" fill-rule="evenodd" d="M 27.3736 7.27526L 23.1672 8.06309C 23.0849 8.07842 23.0082 8.11608 22.945 8.17213C 22.8818 8.22819 22.8346 8.30057 22.8081 8.38172C 22.2591 10.0665 22.2591 11.888 22.8081 13.5728L 24.6889 19.7118C 24.7372 19.8562 24.7516 20.0102 24.7309 20.1613C 24.7103 20.3125 24.6552 20.4566 24.5701 20.5819C 24.485 20.7073 24.3723 20.8105 24.2411 20.8831C 24.1098 20.9557 23.9637 20.9957 23.8145 21C 23.6412 20.9986 23.4718 20.947 23.3259 20.8513C 23.1799 20.7555 23.0635 20.6195 22.99 20.459L 20.1192 14.4249C 20.1144 14.415 20.107 14.4067 20.0978 14.4009C 20.0885 14.3951 20.0779 14.392 20.0671 14.392C 20.0563 14.392 20.0457 14.3951 20.0365 14.4009C 20.0273 14.4067 20.0198 14.415 20.015 14.4249L 17.1443 20.459C 17.0708 20.6195 16.9543 20.7555 16.8084 20.8512C 16.6625 20.947 16.4931 20.9986 16.3197 21C 16.1705 20.9958 16.0244 20.9558 15.8931 20.8832C 15.7618 20.8106 15.6491 20.7074 15.5639 20.582C 15.4788 20.4567 15.4237 20.3126 15.4031 20.1614C 15.3824 20.0102 15.3968 19.8562 15.4451 19.7118L 17.3259 13.5728C 17.8749 11.888 17.8749 10.0665 17.3259 8.38172C 17.2995 8.30055 17.2522 8.22814 17.1891 8.17207C 17.1259 8.11601 17.0491 8.07837 16.9668 8.06309L 13.9999 7.50741L 11.0331 8.06309C 10.9509 8.07842 10.8741 8.11608 10.8109 8.17213C 10.7478 8.22819 10.7005 8.30057 10.674 8.38172C 10.125 10.0665 10.125 11.888 10.674 13.5728L 12.5548 19.7118C 12.6031 19.8562 12.6175 20.0102 12.5969 20.1613C 12.5762 20.3125 12.5211 20.4566 12.436 20.5819C 12.351 20.7073 12.2382 20.8105 12.107 20.8831C 11.9757 20.9557 11.8296 20.9957 11.6805 21C 11.5071 20.9986 11.3377 20.947 11.1918 20.8513C 11.0459 20.7555 10.9294 20.6195 10.8559 20.459L 7.98525 14.4249C 7.98041 14.415 7.97297 14.4067 7.96376 14.4009C 7.95455 14.395 7.94393 14.392 7.9331 14.392C 7.92227 14.392 7.91165 14.395 7.90244 14.4009C 7.89322 14.4067 7.88578 14.415 7.88094 14.4249L 5.0103 20.459C 4.93674 20.6195 4.82028 20.7555 4.67438 20.8512C 4.52848 20.9469 4.35908 20.9985 4.18574 21C 4.03654 20.9958 3.8904 20.9558 3.75912 20.8832C 3.62783 20.8106 3.51508 20.7074 3.42995 20.582C 3.34483 20.4567 3.28972 20.3126 3.26907 20.1614C 3.24843 20.0102 3.26283 19.8562 3.31111 19.7118L 5.19189 13.5728C 5.74091 11.888 5.74091 10.0665 5.19189 8.38172C 5.16544 8.30057 5.11815 8.22819 5.05498 8.17213C 4.9918 8.11608 4.91505 8.07842 4.83277 8.06309L 0.626438 7.27526C 0.439031 7.24039 0.271154 7.1351 0.155806 6.98008C 0.0404571 6.82506 -0.0140197 6.63152 0.00308339 6.43751C 0.0201865 6.24349 0.107633 6.06304 0.248233 5.93161C 0.388833 5.80019 0.572417 5.7273 0.7629 5.72727L 27.2371 5.72727C 27.4276 5.7273 27.6112 5.80019 27.7518 5.93161C 27.8924 6.06304 27.9798 6.24349 27.9969 6.43751C 28.014 6.63152 27.9595 6.82506 27.8442 6.98008C 27.7288 7.1351 27.561 7.24039 27.3736 7.27526ZM 20.067 -1.73326e-07C 20.5285 -1.73326e-07 20.9796 0.139958 21.3634 0.402175C 21.7471 0.664392 22.0462 1.03709 22.2228 1.47314C 22.3994 1.90919 22.4457 2.38901 22.3556 2.85192C 22.2656 3.31483 22.0433 3.74004 21.717 4.07378C 21.3906 4.40752 20.9749 4.6348 20.5222 4.72687C 20.0696 4.81895 19.6004 4.77169 19.174 4.59108C 18.7476 4.41046 18.3832 4.10459 18.1268 3.71216C 17.8704 3.31972 17.7335 2.85834 17.7335 2.38636C 17.7335 1.75346 17.9793 1.14648 18.417 0.69895C 18.8546 0.25142 19.4481 -1.73326e-07 20.067 -1.73326e-07L 20.067 -1.73326e-07ZM 7.93289 -1.73326e-07C 8.39441 -1.73326e-07 8.84556 0.139958 9.2293 0.402175C 9.61304 0.664392 9.91212 1.03709 10.0887 1.47314C 10.2654 1.90919 10.3116 2.38901 10.2215 2.85192C 10.1315 3.31483 9.90925 3.74004 9.58291 4.07378C 9.25656 4.40752 8.84078 4.6348 8.38813 4.72687C 7.93547 4.81895 7.46629 4.77169 7.0399 4.59108C 6.61351 4.41046 6.24908 4.10459 5.99267 3.71216C 5.73626 3.31972 5.59941 2.85834 5.59941 2.38636C 5.59941 2.07298 5.65976 1.76267 5.77703 1.47314C 5.8943 1.18361 6.06618 0.920544 6.28287 0.69895C 6.49955 0.477355 6.75679 0.301577 7.0399 0.181651C 7.32301 0.0617252 7.62645 -1.73326e-07 7.93289 -1.73326e-07L 7.93289 -1.73326e-07Z"/>
</defs>
</svg>
