<svg width="28" height="28" viewBox="0 0 28 28" version="1.1" xmlns="http://www.w3.org/2000/svg" xmlns:xlink="http://www.w3.org/1999/xlink">
<title>icon</title>
<desc>Created using Figma</desc>
<g id="Canvas" transform="translate(-795 369)">
<g id="icon">
<use xlink:href="#path0_fill" transform="translate(795 -369)"/>
</g>
</g>
<defs>
<path id="path0_fill" fill-rule="evenodd" d="M 23.3335 1.19093C 23.643 1.19093 23.9399 1.31512 24.1587 1.5362C 24.3776 1.75727 24.5005 2.0571 24.5005 2.36975L 24.5005 7.39465C 24.5004 7.48203 24.4747 7.56742 24.4266 7.64004C 24.3785 7.71267 24.3102 7.76927 24.2303 7.80269C 24.1504 7.83612 24.0625 7.84487 23.9776 7.82785C 23.8928 7.81082 23.8148 7.76878 23.7536 7.70704L 20.1745 4.0903C 19.9557 3.86923 19.8328 3.56945 19.8328 3.25687L 19.8328 2.36975C 19.8328 2.0571 19.9558 1.75727 20.1746 1.5362C 20.3935 1.31512 20.6903 1.19093 20.9998 1.19093L 23.3335 1.19093ZM 23.3335 27.125L 18.0821 27.125C 17.7726 27.125 17.4758 27.0008 17.257 26.7797C 17.0381 26.5587 16.9152 26.2588 16.9152 25.9462L 16.9152 18.8732C 16.9152 18.5606 16.7922 18.2608 16.5734 18.0397C 16.3545 17.8186 16.0577 17.6944 15.7482 17.6944L 12.2472 17.6944C 11.9377 17.6944 11.6409 17.8186 11.4221 18.0397C 11.2032 18.2608 11.0803 18.5606 11.0803 18.8732L 11.0803 25.9462C 11.0803 26.2588 10.9573 26.5587 10.7385 26.7797C 10.5196 27.0008 10.2228 27.125 9.91329 27.125L 4.66189 27.125C 4.35239 27.125 4.05556 27.0008 3.83671 26.7797C 3.61786 26.5587 3.49491 26.2588 3.49491 25.9462L 3.49491 15.3291L 1.16679 15.3291C 0.935979 15.3289 0.710378 15.2597 0.518505 15.1301C 0.326631 15.0005 0.177096 14.8164 0.0887976 14.6009C 0.000499494 14.3855 -0.0225983 14.1485 0.0224233 13.9198C 0.0674448 13.6911 0.178565 13.4811 0.34174 13.3162L 13.175 0.345299C 13.2833 0.235829 13.4119 0.14899 13.5535 0.0897425C 13.695 0.0304949 13.8467 0 14 0C 14.1532 1.047e-15 14.3049 0.0304949 14.4465 0.0897425C 14.588 0.14899 14.7166 0.235829 14.8249 0.345299L 27.6582 13.3162C 27.8214 13.481 27.9325 13.6911 27.9776 13.9198C 28.0226 14.1484 27.9995 14.3855 27.9112 14.6009C 27.823 14.8163 27.6734 15.0005 27.4816 15.1301C 27.2897 15.2597 27.0641 15.3289 26.8333 15.3291L 24.5005 15.3291L 24.5005 25.9461C 24.5005 26.2588 24.3776 26.5586 24.1587 26.7797C 23.9399 27.0007 23.643 27.1249 23.3335 27.1249L 23.3335 27.125Z"/>
</defs>
</svg>
