<svg width="16" height="14" viewBox="0 0 16 14" version="1.1" xmlns="http://www.w3.org/2000/svg" xmlns:xlink="http://www.w3.org/1999/xlink">
<title>signout</title>
<desc>Created using Figma</desc>
<g id="Canvas" transform="translate(900 507)">
<g id="signout">
<g id="Vector">
<use xlink:href="#path0_fill" transform="translate(-900 -507)" fill="#4F4F4F"/>
</g>
</g>
</g>
<defs>
<path id="path0_fill" fill-rule="evenodd" d="M 8.34748 1.58206e-07L 2.0869 1.58206e-07C 1.53351 0.000691 1.00301 0.220872 0.611767 0.612234C 0.220529 1.0036 0.00051566 1.53417 8.28193e-08 2.08756L 8.28193e-08 11.8295C 0.000524851 12.3829 0.220541 12.9134 0.611777 13.3048C 1.00301 13.6962 1.53352 13.9163 2.0869 13.917L 8.34748 13.917C 8.90088 13.9164 9.43141 13.6962 9.82268 13.3048C 10.2139 12.9135 10.434 12.3829 10.4345 11.8295L 10.4345 9.74193C 10.4365 9.64933 10.4199 9.55726 10.3859 9.47114C 10.3518 9.38501 10.3008 9.30656 10.236 9.24037C 10.1713 9.17419 10.0939 9.12161 10.0085 9.08571C 9.92313 9.04981 9.83144 9.03132 9.73882 9.03132C 9.64619 9.03132 9.5545 9.04981 9.46912 9.08571C 9.38374 9.12161 9.30638 9.17419 9.24158 9.24037C 9.17679 9.30656 9.12586 9.38501 9.09178 9.47114C 9.0577 9.55726 9.04116 9.64933 9.04312 9.74193L 9.04312 11.8295C 9.04297 12.014 8.96964 12.1908 8.83922 12.3213C 8.7088 12.4518 8.53195 12.5251 8.34748 12.5253L 2.0869 12.5253C 1.90243 12.5251 1.72558 12.4517 1.59516 12.3213C 1.46474 12.1908 1.39141 12.014 1.39125 11.8295L 1.39125 2.08756C 1.39144 1.9031 1.46478 1.72624 1.59519 1.59579C 1.7256 1.46534 1.90244 1.39194 2.0869 1.3917L 8.34748 1.3917C 8.53194 1.39193 8.70878 1.46533 8.83919 1.59578C 8.96961 1.72624 9.04295 1.90309 9.04312 2.08756L 9.04312 4.17511C 9.04116 4.26771 9.0577 4.35978 9.09178 4.4459C 9.12586 4.53203 9.17679 4.61048 9.24158 4.67667C 9.30638 4.74285 9.38374 4.79544 9.46912 4.83134C 9.5545 4.86723 9.64619 4.88573 9.73882 4.88573C 9.83144 4.88573 9.92313 4.86723 10.0085 4.83134C 10.0939 4.79544 10.1713 4.74285 10.236 4.67667C 10.3008 4.61048 10.3518 4.53203 10.3859 4.4459C 10.4199 4.35978 10.4365 4.26771 10.4345 4.17511L 10.4345 2.08756C 10.434 1.53415 10.214 1.00356 9.82269 0.612195C 9.43142 0.220831 8.90088 0.000663363 8.34748 1.58206e-07ZM 4.17271 6.95852C 4.17266 7.14301 4.24589 7.31997 4.3763 7.45046C 4.50671 7.58096 4.68362 7.65431 4.86811 7.65437L 11.8184 7.65437L 11.8184 9.39237C 11.8195 9.4574 11.8384 9.5209 11.8729 9.576C 11.9075 9.63111 11.9565 9.67573 12.0145 9.70505C 12.0726 9.73438 12.1375 9.74729 12.2024 9.74241C 12.2673 9.73752 12.3295 9.71501 12.3826 9.67732L 15.8506 7.24573C 15.8967 7.21385 15.9344 7.17127 15.9604 7.12163C 15.9864 7.072 16 7.0168 16 6.96076C 16 6.90473 15.9864 6.84953 15.9604 6.7999C 15.9344 6.75026 15.8967 6.70768 15.8506 6.6758L 12.3826 4.24421C 12.3295 4.20653 12.2672 4.18403 12.2024 4.17915C 12.1375 4.17427 12.0726 4.1872 12.0145 4.21653C 11.9564 4.24586 11.9075 4.29049 11.8729 4.34559C 11.8384 4.4007 11.8195 4.4642 11.8184 4.52923L 11.8184 6.26274L 4.86822 6.26274C 4.77686 6.26276 4.68641 6.28078 4.60202 6.31576C 4.51763 6.35075 4.44096 6.40201 4.37639 6.46663C 4.31181 6.53124 4.2606 6.60795 4.22567 6.69236C 4.19074 6.77677 4.17278 6.86724 4.17282 6.95859L 4.17271 6.95852Z"/>
</defs>
</svg>
