<svg width="28" height="19" viewBox="0 0 28 19" version="1.1" xmlns="http://www.w3.org/2000/svg" xmlns:xlink="http://www.w3.org/1999/xlink">
<title>icon</title>
<desc>Created using Figma</desc>
<g id="Canvas" transform="translate(-795 258)">
<g id="icon">
<use xlink:href="#path0_fill" transform="translate(795 -258)"/>
</g>
</g>
<defs>
<path id="path0_fill" fill-rule="evenodd" d="M 14.9708 12.3435C 14.6833 12.5322 14.3456 12.6329 14.0001 12.6329C 13.6546 12.6329 13.3168 12.5322 13.0293 12.3435L 0.779331 4.30446C 0.539615 4.14714 0.343062 3.934 0.20712 3.68396C 0.0711787 3.43391 5.31793e-05 3.1547 5.78585e-05 2.87109L 5.78585e-05 1.72266C 5.78585e-05 1.26578 0.184432 0.827615 0.51262 0.504554C 0.840808 0.181493 1.28593 2.04003e-15 1.75005 0L 26.25 0C 26.7141 2.04003e-15 27.1592 0.181493 27.4874 0.504554C 27.8156 0.827615 28 1.26578 28 1.72266L 28 2.87109C 28 3.1547 27.9289 3.43392 27.793 3.68397C 27.6571 3.93403 27.4605 4.14716 27.2208 4.30446L 14.9708 12.3435ZM 27.9999 16.6523C 27.9999 17.1092 27.8156 17.5474 27.4874 17.8704C 27.1592 18.1935 26.7141 18.375 26.2499 18.375L 1.75 18.375C 1.28587 18.375 0.84075 18.1935 0.512562 17.8704C 0.184374 17.5474 2.37293e-09 17.1092 2.37293e-09 16.6523L 2.37293e-09 6.44273C -1.04562e-05 6.31744 0.0345508 6.19449 0.0999937 6.08702C 0.165437 5.97955 0.259304 5.89159 0.37157 5.83255C 0.483837 5.7735 0.610288 5.74557 0.73742 5.75176C 0.864552 5.75794 0.98759 5.798 1.0934 5.86765L 12.3822 13.2991C 12.8613 13.6135 13.4242 13.7812 14 13.7812C 14.5758 13.7812 15.1387 13.6135 15.6178 13.2991L 26.9065 5.86748C 27.0123 5.79784 27.1353 5.75778 27.2624 5.75159C 27.3896 5.74539 27.516 5.77329 27.6282 5.83231C 27.7405 5.89132 27.8344 5.97923 27.8998 6.08666C 27.9653 6.19409 27.9999 6.317 27.9999 6.44227L 27.9999 16.6523Z"/>
</defs>
</svg>
